<mxfile host="www.draw.io" modified="2020-02-23T06:53:17.533Z" agent="Mozilla/5.0 (Windows NT 10.0; Win64; x64) AppleWebKit/537.36 (KHTML, like Gecko) Chrome/79.0.3945.130 Safari/537.36" etag="rvUdq7Kek44DaMpXNJV8" version="12.7.4" type="github">
  <diagram id="tnBvJNFLA8jh1FJiWvkt" name="Page-1">
    <mxGraphModel dx="1102" dy="533" grid="1" gridSize="10" guides="1" tooltips="1" connect="1" arrows="1" fold="1" page="1" pageScale="1" pageWidth="827" pageHeight="1169" math="0" shadow="0">
      <root>
        <mxCell id="0" />
        <mxCell id="1" parent="0" />
        <mxCell id="vn0pC_jQNNxU57VkF7Br-2" value="" style="shape=mxgraph.cisco.storage.web_cluster;html=1;dashed=0;fillColor=#76608A;strokeColor=#76608A;strokeWidth=2;verticalLabelPosition=bottom;verticalAlign=top;fontColor=#ffffff;" parent="1" vertex="1">
          <mxGeometry x="316" y="310" width="186" height="106" as="geometry" />
        </mxCell>
        <mxCell id="vn0pC_jQNNxU57VkF7Br-41" value="Producer" style="text;html=1;strokeColor=none;fillColor=none;align=center;verticalAlign=middle;whiteSpace=wrap;rounded=0;fontSize=18;" parent="1" vertex="1">
          <mxGeometry x="59" y="420" width="80" height="20" as="geometry" />
        </mxCell>
        <mxCell id="vn0pC_jQNNxU57VkF7Br-48" value="&lt;b&gt;&lt;font color=&quot;#76608a&quot;&gt;Kafka Broker&lt;/font&gt;&lt;/b&gt;" style="text;html=1;strokeColor=none;fillColor=none;align=center;verticalAlign=middle;whiteSpace=wrap;rounded=0;fontSize=18;" parent="1" vertex="1">
          <mxGeometry x="355.25" y="420" width="117" height="20" as="geometry" />
        </mxCell>
        <mxCell id="vn0pC_jQNNxU57VkF7Br-49" value="Consumer" style="text;html=1;strokeColor=none;fillColor=none;align=center;verticalAlign=middle;whiteSpace=wrap;rounded=0;fontSize=18;" parent="1" vertex="1">
          <mxGeometry x="697" y="420" width="80" height="20" as="geometry" />
        </mxCell>
        <mxCell id="vn0pC_jQNNxU57VkF7Br-51" value="push" style="html=1;shadow=0;dashed=0;align=center;verticalAlign=middle;shape=mxgraph.arrows2.arrow;dy=0.6;dx=40;notch=15;fontSize=18;" parent="1" vertex="1">
          <mxGeometry x="190" y="328" width="100" height="70" as="geometry" />
        </mxCell>
        <mxCell id="vn0pC_jQNNxU57VkF7Br-52" value="pull" style="html=1;shadow=0;dashed=0;align=center;verticalAlign=middle;shape=mxgraph.arrows2.arrow;dy=0.6;dx=40;notch=15;fontSize=18;" parent="1" vertex="1">
          <mxGeometry x="540" y="328" width="100" height="70" as="geometry" />
        </mxCell>
        <mxCell id="vn0pC_jQNNxU57VkF7Br-56" value="&lt;table border=&quot;1&quot; width=&quot;100%&quot; style=&quot;width: 100% ; height: 100% ; border-collapse: collapse&quot;&gt;&lt;tbody&gt;&lt;tr&gt;&lt;td align=&quot;center&quot;&gt;&lt;br&gt;&lt;/td&gt;&lt;td align=&quot;center&quot;&gt;&lt;br&gt;&lt;/td&gt;&lt;td align=&quot;center&quot;&gt;&lt;br&gt;&lt;/td&gt;&lt;/tr&gt;&lt;tr&gt;&lt;td align=&quot;center&quot;&gt;&lt;br&gt;&lt;/td&gt;&lt;td align=&quot;center&quot;&gt;Partion 1&lt;/td&gt;&lt;td align=&quot;center&quot;&gt;&lt;br&gt;&lt;/td&gt;&lt;/tr&gt;&lt;tr&gt;&lt;td align=&quot;center&quot;&gt;&lt;br&gt;&lt;/td&gt;&lt;td align=&quot;center&quot;&gt;&lt;br&gt;&lt;/td&gt;&lt;td align=&quot;center&quot;&gt;&lt;br&gt;&lt;/td&gt;&lt;/tr&gt;&lt;/tbody&gt;&lt;/table&gt;" style="text;html=1;strokeColor=#432D57;fillColor=#76608a;overflow=fill;fontSize=18;fontColor=#ffffff;" parent="1" vertex="1">
          <mxGeometry x="309" y="480" width="84.75" height="70" as="geometry" />
        </mxCell>
        <mxCell id="vn0pC_jQNNxU57VkF7Br-60" value="&lt;table border=&quot;1&quot; width=&quot;100%&quot; style=&quot;width: 100% ; height: 100% ; border-collapse: collapse&quot;&gt;&lt;tbody&gt;&lt;tr&gt;&lt;td align=&quot;center&quot;&gt;&lt;br&gt;&lt;/td&gt;&lt;td align=&quot;center&quot;&gt;&lt;br&gt;&lt;/td&gt;&lt;td align=&quot;center&quot;&gt;&lt;br&gt;&lt;/td&gt;&lt;/tr&gt;&lt;tr&gt;&lt;td align=&quot;center&quot;&gt;&lt;br&gt;&lt;/td&gt;&lt;td align=&quot;center&quot;&gt;Partion 3&lt;/td&gt;&lt;td align=&quot;center&quot;&gt;&lt;br&gt;&lt;/td&gt;&lt;/tr&gt;&lt;tr&gt;&lt;td align=&quot;center&quot;&gt;&lt;br&gt;&lt;/td&gt;&lt;td align=&quot;center&quot;&gt;&lt;br&gt;&lt;/td&gt;&lt;td align=&quot;center&quot;&gt;&lt;br&gt;&lt;/td&gt;&lt;/tr&gt;&lt;/tbody&gt;&lt;/table&gt;" style="text;html=1;strokeColor=#432D57;fillColor=#76608a;overflow=fill;fontSize=18;fontColor=#ffffff;" parent="1" vertex="1">
          <mxGeometry x="309" y="570" width="84.75" height="70" as="geometry" />
        </mxCell>
        <mxCell id="vn0pC_jQNNxU57VkF7Br-61" value="&lt;table border=&quot;1&quot; width=&quot;100%&quot; style=&quot;width: 100% ; height: 100% ; border-collapse: collapse&quot;&gt;&lt;tbody&gt;&lt;tr&gt;&lt;td align=&quot;center&quot;&gt;&lt;br&gt;&lt;/td&gt;&lt;td align=&quot;center&quot;&gt;&lt;br&gt;&lt;/td&gt;&lt;td align=&quot;center&quot;&gt;&lt;br&gt;&lt;/td&gt;&lt;/tr&gt;&lt;tr&gt;&lt;td align=&quot;center&quot;&gt;&lt;br&gt;&lt;/td&gt;&lt;td align=&quot;center&quot;&gt;Partion 5&lt;/td&gt;&lt;td align=&quot;center&quot;&gt;&lt;br&gt;&lt;/td&gt;&lt;/tr&gt;&lt;tr&gt;&lt;td align=&quot;center&quot;&gt;&lt;br&gt;&lt;/td&gt;&lt;td align=&quot;center&quot;&gt;&lt;br&gt;&lt;/td&gt;&lt;td align=&quot;center&quot;&gt;&lt;br&gt;&lt;/td&gt;&lt;/tr&gt;&lt;/tbody&gt;&lt;/table&gt;" style="text;html=1;strokeColor=#432D57;fillColor=#76608a;overflow=fill;fontSize=18;fontColor=#ffffff;" parent="1" vertex="1">
          <mxGeometry x="309" y="660" width="84.75" height="70" as="geometry" />
        </mxCell>
        <mxCell id="vn0pC_jQNNxU57VkF7Br-62" value="&lt;table border=&quot;1&quot; width=&quot;100%&quot; style=&quot;width: 100% ; height: 100% ; border-collapse: collapse&quot;&gt;&lt;tbody&gt;&lt;tr&gt;&lt;td align=&quot;center&quot;&gt;&lt;br&gt;&lt;/td&gt;&lt;td align=&quot;center&quot;&gt;&lt;br&gt;&lt;/td&gt;&lt;td align=&quot;center&quot;&gt;&lt;br&gt;&lt;/td&gt;&lt;/tr&gt;&lt;tr&gt;&lt;td align=&quot;center&quot;&gt;&lt;br&gt;&lt;/td&gt;&lt;td align=&quot;center&quot;&gt;Partion 7&lt;/td&gt;&lt;td align=&quot;center&quot;&gt;&lt;br&gt;&lt;/td&gt;&lt;/tr&gt;&lt;tr&gt;&lt;td align=&quot;center&quot;&gt;&lt;br&gt;&lt;/td&gt;&lt;td align=&quot;center&quot;&gt;&lt;br&gt;&lt;/td&gt;&lt;td align=&quot;center&quot;&gt;&lt;br&gt;&lt;/td&gt;&lt;/tr&gt;&lt;/tbody&gt;&lt;/table&gt;" style="text;html=1;strokeColor=#432D57;fillColor=#76608a;overflow=fill;fontSize=18;fontColor=#ffffff;" parent="1" vertex="1">
          <mxGeometry x="309" y="750" width="84.75" height="70" as="geometry" />
        </mxCell>
        <mxCell id="vn0pC_jQNNxU57VkF7Br-63" value="&lt;table border=&quot;1&quot; width=&quot;100%&quot; style=&quot;width: 100% ; height: 100% ; border-collapse: collapse&quot;&gt;&lt;tbody&gt;&lt;tr&gt;&lt;td align=&quot;center&quot;&gt;&lt;br&gt;&lt;/td&gt;&lt;td align=&quot;center&quot;&gt;&lt;br&gt;&lt;/td&gt;&lt;td align=&quot;center&quot;&gt;&lt;br&gt;&lt;/td&gt;&lt;/tr&gt;&lt;tr&gt;&lt;td align=&quot;center&quot;&gt;&lt;br&gt;&lt;/td&gt;&lt;td align=&quot;center&quot;&gt;Partion 2&lt;/td&gt;&lt;td align=&quot;center&quot;&gt;&lt;br&gt;&lt;/td&gt;&lt;/tr&gt;&lt;tr&gt;&lt;td align=&quot;center&quot;&gt;&lt;br&gt;&lt;/td&gt;&lt;td align=&quot;center&quot;&gt;&lt;br&gt;&lt;/td&gt;&lt;td align=&quot;center&quot;&gt;&lt;br&gt;&lt;/td&gt;&lt;/tr&gt;&lt;/tbody&gt;&lt;/table&gt;" style="text;html=1;strokeColor=#432D57;fillColor=#76608a;overflow=fill;fontSize=18;fontColor=#ffffff;" parent="1" vertex="1">
          <mxGeometry x="433.75" y="480" width="84.75" height="70" as="geometry" />
        </mxCell>
        <mxCell id="vn0pC_jQNNxU57VkF7Br-64" value="&lt;table border=&quot;1&quot; width=&quot;100%&quot; style=&quot;width: 100% ; height: 100% ; border-collapse: collapse&quot;&gt;&lt;tbody&gt;&lt;tr&gt;&lt;td align=&quot;center&quot;&gt;&lt;br&gt;&lt;/td&gt;&lt;td align=&quot;center&quot;&gt;&lt;br&gt;&lt;/td&gt;&lt;td align=&quot;center&quot;&gt;&lt;br&gt;&lt;/td&gt;&lt;/tr&gt;&lt;tr&gt;&lt;td align=&quot;center&quot;&gt;&lt;br&gt;&lt;/td&gt;&lt;td align=&quot;center&quot;&gt;Partion 4&lt;/td&gt;&lt;td align=&quot;center&quot;&gt;&lt;br&gt;&lt;/td&gt;&lt;/tr&gt;&lt;tr&gt;&lt;td align=&quot;center&quot;&gt;&lt;br&gt;&lt;/td&gt;&lt;td align=&quot;center&quot;&gt;&lt;br&gt;&lt;/td&gt;&lt;td align=&quot;center&quot;&gt;&lt;br&gt;&lt;/td&gt;&lt;/tr&gt;&lt;/tbody&gt;&lt;/table&gt;" style="text;html=1;strokeColor=#432D57;fillColor=#76608a;overflow=fill;fontSize=18;fontColor=#ffffff;" parent="1" vertex="1">
          <mxGeometry x="433.75" y="570" width="84.75" height="70" as="geometry" />
        </mxCell>
        <mxCell id="vn0pC_jQNNxU57VkF7Br-65" value="&lt;table border=&quot;1&quot; width=&quot;100%&quot; style=&quot;width: 100% ; height: 100% ; border-collapse: collapse&quot;&gt;&lt;tbody&gt;&lt;tr&gt;&lt;td align=&quot;center&quot;&gt;&lt;br&gt;&lt;/td&gt;&lt;td align=&quot;center&quot;&gt;&lt;br&gt;&lt;/td&gt;&lt;td align=&quot;center&quot;&gt;&lt;br&gt;&lt;/td&gt;&lt;/tr&gt;&lt;tr&gt;&lt;td align=&quot;center&quot;&gt;&lt;br&gt;&lt;/td&gt;&lt;td align=&quot;center&quot;&gt;Partion 6&lt;/td&gt;&lt;td align=&quot;center&quot;&gt;&lt;br&gt;&lt;/td&gt;&lt;/tr&gt;&lt;tr&gt;&lt;td align=&quot;center&quot;&gt;&lt;br&gt;&lt;/td&gt;&lt;td align=&quot;center&quot;&gt;&lt;br&gt;&lt;/td&gt;&lt;td align=&quot;center&quot;&gt;&lt;br&gt;&lt;/td&gt;&lt;/tr&gt;&lt;/tbody&gt;&lt;/table&gt;" style="text;html=1;strokeColor=#432D57;fillColor=#76608a;overflow=fill;fontSize=18;fontColor=#ffffff;" parent="1" vertex="1">
          <mxGeometry x="433.75" y="660" width="84.75" height="70" as="geometry" />
        </mxCell>
        <mxCell id="vn0pC_jQNNxU57VkF7Br-66" value="&lt;table border=&quot;1&quot; width=&quot;100%&quot; style=&quot;width: 100% ; height: 100% ; border-collapse: collapse&quot;&gt;&lt;tbody&gt;&lt;tr&gt;&lt;td align=&quot;center&quot;&gt;&lt;br&gt;&lt;/td&gt;&lt;td align=&quot;center&quot;&gt;&lt;br&gt;&lt;/td&gt;&lt;td align=&quot;center&quot;&gt;&lt;br&gt;&lt;/td&gt;&lt;/tr&gt;&lt;tr&gt;&lt;td align=&quot;center&quot;&gt;&lt;br&gt;&lt;/td&gt;&lt;td align=&quot;center&quot;&gt;Partion 8&lt;/td&gt;&lt;td align=&quot;center&quot;&gt;&lt;br&gt;&lt;/td&gt;&lt;/tr&gt;&lt;tr&gt;&lt;td align=&quot;center&quot;&gt;&lt;br&gt;&lt;/td&gt;&lt;td align=&quot;center&quot;&gt;&lt;br&gt;&lt;/td&gt;&lt;td align=&quot;center&quot;&gt;&lt;br&gt;&lt;/td&gt;&lt;/tr&gt;&lt;/tbody&gt;&lt;/table&gt;" style="text;html=1;strokeColor=#432D57;fillColor=#76608a;overflow=fill;fontSize=18;fontColor=#ffffff;" parent="1" vertex="1">
          <mxGeometry x="433.75" y="750" width="84.75" height="70" as="geometry" />
        </mxCell>
        <mxCell id="vn0pC_jQNNxU57VkF7Br-71" value="subject/partion/offset" style="verticalLabelPosition=bottom;verticalAlign=top;html=1;strokeWidth=1;shape=mxgraph.arrows2.arrow;dy=0.6;dx=40;notch=0;fontSize=18;" parent="1" vertex="1">
          <mxGeometry x="159.32" y="494.99" width="100" height="40" as="geometry" />
        </mxCell>
        <mxCell id="vn0pC_jQNNxU57VkF7Br-79" value="subject/partion/offset" style="verticalLabelPosition=bottom;verticalAlign=top;html=1;strokeWidth=1;shape=mxgraph.arrows2.arrow;dy=0.6;dx=40;notch=0;fontSize=18;" parent="1" vertex="1">
          <mxGeometry x="159.32" y="585" width="100" height="40" as="geometry" />
        </mxCell>
        <mxCell id="vn0pC_jQNNxU57VkF7Br-80" value="subject/partion/offset" style="verticalLabelPosition=bottom;verticalAlign=top;html=1;strokeWidth=1;shape=mxgraph.arrows2.arrow;dy=0.6;dx=40;notch=0;fontSize=18;" parent="1" vertex="1">
          <mxGeometry x="159.32" y="675" width="100" height="40" as="geometry" />
        </mxCell>
        <mxCell id="vn0pC_jQNNxU57VkF7Br-81" value="subject/partion/offset" style="verticalLabelPosition=bottom;verticalAlign=top;html=1;strokeWidth=1;shape=mxgraph.arrows2.arrow;dy=0.6;dx=40;notch=0;fontSize=18;" parent="1" vertex="1">
          <mxGeometry x="159.32" y="765" width="100" height="40" as="geometry" />
        </mxCell>
        <mxCell id="vn0pC_jQNNxU57VkF7Br-86" value="subject/partion/offset" style="verticalLabelPosition=bottom;verticalAlign=top;html=1;strokeWidth=1;shape=mxgraph.arrows2.arrow;dy=0.6;dx=40;notch=0;fontSize=18;" parent="1" vertex="1">
          <mxGeometry x="572" y="534.99" width="100" height="40" as="geometry" />
        </mxCell>
        <mxCell id="vn0pC_jQNNxU57VkF7Br-87" value="subject/partion/offset" style="verticalLabelPosition=bottom;verticalAlign=top;html=1;strokeWidth=1;shape=mxgraph.arrows2.arrow;dy=0.6;dx=40;notch=0;fontSize=18;" parent="1" vertex="1">
          <mxGeometry x="572" y="715" width="100" height="40" as="geometry" />
        </mxCell>
        <mxCell id="vn0pC_jQNNxU57VkF7Br-90" value="&lt;h1 style=&quot;font-size: 20px&quot;&gt;Subject&lt;/h1&gt;&lt;div style=&quot;font-size: 20px&quot;&gt;&lt;font style=&quot;font-size: 20px&quot;&gt;Data unique id&lt;/font&gt;&lt;/div&gt;" style="text;html=1;strokeColor=none;fillColor=none;spacing=5;spacingTop=-20;whiteSpace=wrap;overflow=hidden;rounded=0;fontSize=18;" parent="1" vertex="1">
          <mxGeometry x="69.32" y="920" width="190" height="120" as="geometry" />
        </mxCell>
        <mxCell id="vn0pC_jQNNxU57VkF7Br-92" value="&lt;h1 style=&quot;font-size: 20px&quot;&gt;&lt;font style=&quot;font-size: 20px&quot;&gt;Partion&lt;/font&gt;&lt;/h1&gt;&lt;div style=&quot;font-size: 20px&quot;&gt;&lt;font style=&quot;font-size: 20px&quot;&gt;Index of partion&lt;/font&gt;&lt;/div&gt;" style="text;html=1;strokeColor=none;fillColor=none;spacing=5;spacingTop=-20;whiteSpace=wrap;overflow=hidden;rounded=0;fontSize=18;" parent="1" vertex="1">
          <mxGeometry x="276" y="920" width="190" height="120" as="geometry" />
        </mxCell>
        <mxCell id="vn0pC_jQNNxU57VkF7Br-93" value="&lt;h1 style=&quot;font-size: 20px&quot;&gt;&lt;font style=&quot;font-size: 20px&quot;&gt;Offset&lt;/font&gt;&lt;/h1&gt;&lt;div style=&quot;font-size: 20px&quot;&gt;&lt;font style=&quot;font-size: 20px&quot;&gt;Location in partion&lt;/font&gt;&lt;/div&gt;" style="text;html=1;strokeColor=none;fillColor=none;spacing=5;spacingTop=-20;whiteSpace=wrap;overflow=hidden;rounded=0;fontSize=18;" parent="1" vertex="1">
          <mxGeometry x="481" y="920" width="190" height="120" as="geometry" />
        </mxCell>
        <mxCell id="bwRhajFnjXBrmEJf6pVS-1" value="&lt;font style=&quot;font-size: 18px&quot;&gt;Hadoop&lt;br&gt;Cluster&lt;/font&gt;" style="text;html=1;align=center;verticalAlign=middle;resizable=0;points=[];autosize=1;" parent="1" vertex="1">
          <mxGeometry x="715.7" y="590" width="80" height="40" as="geometry" />
        </mxCell>
        <mxCell id="bwRhajFnjXBrmEJf6pVS-2" value="&lt;font style=&quot;font-size: 18px&quot;&gt;HBase&lt;/font&gt;" style="text;html=1;align=center;verticalAlign=middle;resizable=0;points=[];autosize=1;" parent="1" vertex="1">
          <mxGeometry x="725" y="775" width="70" height="20" as="geometry" />
        </mxCell>
        <mxCell id="bwRhajFnjXBrmEJf6pVS-5" value="" style="aspect=fixed;pointerEvents=1;shadow=0;dashed=0;html=1;strokeColor=#82b366;labelPosition=center;verticalLabelPosition=bottom;verticalAlign=top;align=center;fillColor=#505050;shape=mxgraph.azure.user" parent="1" vertex="1">
          <mxGeometry x="725" y="689.04" width="71.4" height="75.96" as="geometry" />
        </mxCell>
        <mxCell id="bwRhajFnjXBrmEJf6pVS-6" value="" style="aspect=fixed;pointerEvents=1;shadow=0;dashed=0;html=1;strokeColor=#82b366;labelPosition=center;verticalLabelPosition=bottom;verticalAlign=top;align=center;fillColor=#505050;shape=mxgraph.azure.user" parent="1" vertex="1">
          <mxGeometry x="720" y="509" width="71.4" height="75.96" as="geometry" />
        </mxCell>
        <mxCell id="bwRhajFnjXBrmEJf6pVS-8" value="" style="aspect=fixed;pointerEvents=1;shadow=0;dashed=0;html=1;strokeColor=#82b366;labelPosition=center;verticalLabelPosition=bottom;verticalAlign=top;align=center;fillColor=#505050;shape=mxgraph.azure.user" parent="1" vertex="1">
          <mxGeometry x="34" y="481.07" width="64.8" height="68.93" as="geometry" />
        </mxCell>
        <mxCell id="bwRhajFnjXBrmEJf6pVS-15" value="&lt;font color=&quot;#76608a&quot; style=&quot;font-size: 18px&quot;&gt;&lt;b&gt;Zookeeper&lt;/b&gt;&lt;/font&gt;" style="aspect=fixed;pointerEvents=1;shadow=0;dashed=0;html=1;strokeColor=none;labelPosition=center;verticalLabelPosition=bottom;verticalAlign=top;align=center;fillColor=#76608A;shape=mxgraph.mscae.enterprise.load_testing" parent="1" vertex="1">
          <mxGeometry x="369" y="100" width="89.5" height="93.23" as="geometry" />
        </mxCell>
        <mxCell id="bwRhajFnjXBrmEJf6pVS-19" value="" style="aspect=fixed;pointerEvents=1;shadow=0;dashed=0;html=1;strokeColor=#36393d;labelPosition=center;verticalLabelPosition=bottom;verticalAlign=top;align=center;fillColor=#76608A;shape=mxgraph.azure.load_balancer_generic" parent="1" vertex="1">
          <mxGeometry x="395" y="240" width="37" height="50" as="geometry" />
        </mxCell>
        <mxCell id="bwRhajFnjXBrmEJf6pVS-20" value="" style="pointerEvents=1;shadow=0;dashed=0;html=1;strokeColor=none;labelPosition=center;verticalLabelPosition=bottom;verticalAlign=top;align=center;fillColor=#505050;shape=mxgraph.mscae.intune.user_group" parent="1" vertex="1">
          <mxGeometry x="34" y="308" width="130" height="110" as="geometry" />
        </mxCell>
        <mxCell id="bwRhajFnjXBrmEJf6pVS-21" value="" style="pointerEvents=1;shadow=0;dashed=0;html=1;strokeColor=none;labelPosition=center;verticalLabelPosition=bottom;verticalAlign=top;align=center;fillColor=#505050;shape=mxgraph.mscae.intune.user_group" parent="1" vertex="1">
          <mxGeometry x="672" y="308" width="130" height="110" as="geometry" />
        </mxCell>
        <mxCell id="bwRhajFnjXBrmEJf6pVS-27" value="" style="aspect=fixed;pointerEvents=1;shadow=0;dashed=0;html=1;strokeColor=#82b366;labelPosition=center;verticalLabelPosition=bottom;verticalAlign=top;align=center;fillColor=#505050;shape=mxgraph.azure.user" parent="1" vertex="1">
          <mxGeometry x="34" y="571.0699999999999" width="64.8" height="68.93" as="geometry" />
        </mxCell>
        <mxCell id="bwRhajFnjXBrmEJf6pVS-28" value="" style="aspect=fixed;pointerEvents=1;shadow=0;dashed=0;html=1;strokeColor=#82b366;labelPosition=center;verticalLabelPosition=bottom;verticalAlign=top;align=center;fillColor=#505050;shape=mxgraph.azure.user" parent="1" vertex="1">
          <mxGeometry x="34" y="661.0699999999999" width="64.8" height="68.93" as="geometry" />
        </mxCell>
        <mxCell id="bwRhajFnjXBrmEJf6pVS-29" value="" style="aspect=fixed;pointerEvents=1;shadow=0;dashed=0;html=1;strokeColor=#82b366;labelPosition=center;verticalLabelPosition=bottom;verticalAlign=top;align=center;fillColor=#505050;shape=mxgraph.azure.user" parent="1" vertex="1">
          <mxGeometry x="34" y="749.9999999999999" width="64.8" height="68.93" as="geometry" />
        </mxCell>
      </root>
    </mxGraphModel>
  </diagram>
</mxfile>
